<svg width="608" height="131" viewBox="0 0 608 131" fill="none" xmlns="http://www.w3.org/2000/svg">
<path d="M63.9999 12.2C34.2847 12.2 10.2002 36.2845 10.2002 65.9997C10.2002 95.7149 34.2847 119.799 63.9999 119.799C67.2549 119.799 70.4398 119.509 73.5349 118.959C94.1454 115.269 110.68 99.849 115.995 79.8541C117.175 75.4291 117.8 70.7891 117.8 65.9994C117.8 36.2842 93.7151 12.2 63.9999 12.2ZM79.9103 93.5095H48.0908L55.8208 69.4839C50.8058 66.6338 47.4258 61.2439 47.4258 55.0634C47.4258 45.9084 54.8458 38.4887 64.0005 38.4887C73.1552 38.4887 80.5752 45.9087 80.5752 55.0634C80.5752 61.2433 77.1903 66.6334 72.1802 69.4839L79.9103 93.5095Z" fill="white"/>
<path d="M203.36 68.352C203.36 66.88 203.136 65.472 202.688 64.128C202.304 62.784 201.664 61.6 200.768 60.576C199.872 59.552 198.72 58.752 197.312 58.176C195.968 57.536 194.368 57.216 192.512 57.216C189.056 57.216 186.112 58.272 183.68 60.384C181.312 62.432 180 65.088 179.744 68.352H203.36ZM214.88 73.536C214.88 74.048 214.88 74.56 214.88 75.072C214.88 75.584 214.848 76.096 214.784 76.608H179.744C179.872 78.272 180.288 79.808 180.992 81.216C181.76 82.56 182.752 83.744 183.968 84.768C185.184 85.728 186.56 86.496 188.096 87.072C189.632 87.648 191.232 87.936 192.896 87.936C195.776 87.936 198.208 87.424 200.192 86.4C202.176 85.312 203.808 83.84 205.088 81.984L212.768 88.128C208.224 94.272 201.632 97.344 192.992 97.344C189.408 97.344 186.112 96.8 183.104 95.712C180.096 94.56 177.472 92.96 175.232 90.912C173.056 88.864 171.328 86.368 170.048 83.424C168.832 80.416 168.224 77.024 168.224 73.248C168.224 69.536 168.832 66.176 170.048 63.168C171.328 60.096 173.056 57.504 175.232 55.392C177.408 53.216 179.968 51.552 182.912 50.4C185.92 49.184 189.152 48.576 192.608 48.576C195.808 48.576 198.752 49.12 201.44 50.208C204.192 51.232 206.56 52.8 208.544 54.912C210.528 56.96 212.064 59.552 213.152 62.688C214.304 65.76 214.88 69.376 214.88 73.536ZM246.485 62.208C245.461 60.864 244.053 59.712 242.261 58.752C240.469 57.728 238.517 57.216 236.405 57.216C234.549 57.216 232.853 57.6 231.317 58.368C229.781 59.136 229.013 60.416 229.013 62.208C229.013 64 229.845 65.28 231.509 66.048C233.237 66.752 235.733 67.488 238.997 68.256C240.725 68.64 242.453 69.152 244.181 69.792C245.973 70.432 247.573 71.296 248.981 72.384C250.453 73.408 251.637 74.72 252.533 76.32C253.429 77.856 253.877 79.744 253.877 81.984C253.877 84.8 253.333 87.2 252.245 89.184C251.221 91.104 249.813 92.672 248.021 93.888C246.293 95.104 244.245 95.968 241.877 96.48C239.573 97.056 237.173 97.344 234.677 97.344C231.093 97.344 227.605 96.704 224.213 95.424C220.821 94.08 218.005 92.192 215.765 89.76L223.349 82.656C224.629 84.32 226.293 85.696 228.341 86.784C230.389 87.872 232.661 88.416 235.157 88.416C235.989 88.416 236.821 88.32 237.653 88.128C238.549 87.936 239.349 87.648 240.053 87.264C240.821 86.816 241.429 86.24 241.877 85.536C242.325 84.832 242.549 83.968 242.549 82.944C242.549 81.024 241.653 79.648 239.861 78.816C238.133 77.984 235.509 77.152 231.989 76.32C230.261 75.936 228.565 75.456 226.901 74.88C225.301 74.24 223.861 73.44 222.581 72.48C221.301 71.456 220.277 70.208 219.509 68.736C218.741 67.264 218.357 65.44 218.357 63.264C218.357 60.704 218.869 58.496 219.893 56.64C220.981 54.784 222.389 53.28 224.117 52.128C225.845 50.912 227.797 50.016 229.973 49.44C232.149 48.864 234.389 48.576 236.693 48.576C240.021 48.576 243.253 49.152 246.389 50.304C249.589 51.456 252.117 53.216 253.973 55.584L246.485 62.208ZM290.581 62.688C289.685 61.408 288.341 60.352 286.549 59.52C284.757 58.624 282.933 58.176 281.077 58.176C278.965 58.176 277.109 58.624 275.509 59.52C273.909 60.352 272.565 61.472 271.477 62.88C270.453 64.288 269.685 65.888 269.173 67.68C268.661 69.408 268.405 71.168 268.405 72.96C268.405 74.752 268.661 76.544 269.173 78.336C269.749 80.064 270.581 81.632 271.669 83.04C272.757 84.448 274.101 85.6 275.701 86.496C277.365 87.328 279.285 87.744 281.461 87.744C283.253 87.744 285.045 87.392 286.837 86.688C288.629 85.984 290.069 84.96 291.157 83.616L298.357 90.912C296.437 92.96 293.973 94.56 290.965 95.712C288.021 96.8 284.821 97.344 281.365 97.344C277.973 97.344 274.741 96.8 271.669 95.712C268.661 94.624 266.005 93.024 263.701 90.912C261.461 88.8 259.669 86.24 258.325 83.232C257.045 80.224 256.405 76.8 256.405 72.96C256.405 69.248 257.045 65.888 258.325 62.88C259.669 59.872 261.461 57.312 263.701 55.2C265.941 53.088 268.533 51.456 271.477 50.304C274.485 49.152 277.685 48.576 281.077 48.576C284.469 48.576 287.733 49.216 290.869 50.496C294.069 51.776 296.597 53.536 298.453 55.776L290.581 62.688ZM329.776 90.144H329.488C328.336 92.192 326.48 93.888 323.92 95.232C321.36 96.512 318.448 97.152 315.184 97.152C313.328 97.152 311.376 96.896 309.328 96.384C307.344 95.936 305.488 95.168 303.76 94.08C302.096 92.928 300.688 91.456 299.536 89.664C298.448 87.808 297.904 85.536 297.904 82.848C297.904 79.392 298.864 76.64 300.784 74.592C302.768 72.544 305.296 70.976 308.368 69.888C311.44 68.8 314.832 68.096 318.544 67.776C322.32 67.392 326 67.2 329.584 67.2V66.048C329.584 63.168 328.528 61.056 326.416 59.712C324.368 58.304 321.904 57.6 319.024 57.6C316.592 57.6 314.256 58.112 312.016 59.136C309.776 60.16 307.92 61.408 306.448 62.88L300.496 55.872C303.12 53.44 306.128 51.616 309.52 50.4C312.976 49.184 316.464 48.576 319.984 48.576C324.08 48.576 327.44 49.152 330.064 50.304C332.752 51.456 334.864 52.96 336.4 54.816C337.936 56.672 338.992 58.752 339.568 61.056C340.208 63.36 340.528 65.664 340.528 67.968V96H329.776V90.144ZM329.584 74.976H326.992C325.136 74.976 323.184 75.072 321.136 75.264C319.088 75.392 317.2 75.744 315.472 76.32C313.744 76.832 312.304 77.6 311.152 78.624C310 79.584 309.424 80.928 309.424 82.656C309.424 83.744 309.648 84.672 310.096 85.44C310.608 86.144 311.248 86.72 312.016 87.168C312.784 87.616 313.648 87.936 314.608 88.128C315.568 88.32 316.528 88.416 317.488 88.416C321.456 88.416 324.464 87.36 326.512 85.248C328.56 83.136 329.584 80.256 329.584 76.608V74.976ZM360.19 49.92V56.352H360.478C361.054 55.456 361.79 54.56 362.686 53.664C363.646 52.704 364.798 51.872 366.142 51.168C367.486 50.4 368.99 49.792 370.654 49.344C372.382 48.832 374.302 48.576 376.414 48.576C379.678 48.576 382.686 49.216 385.438 50.496C388.19 51.712 390.558 53.408 392.542 55.584C394.526 57.76 396.062 60.32 397.15 63.264C398.238 66.208 398.782 69.376 398.782 72.768C398.782 76.16 398.238 79.36 397.15 82.368C396.126 85.312 394.622 87.904 392.638 90.144C390.718 92.32 388.35 94.08 385.534 95.424C382.782 96.704 379.646 97.344 376.126 97.344C372.862 97.344 369.854 96.672 367.102 95.328C364.414 93.984 362.334 92.16 360.862 89.856H360.67V119.04H349.15V49.92H360.19ZM387.07 72.768C387.07 70.976 386.782 69.216 386.206 67.488C385.694 65.696 384.894 64.096 383.806 62.688C382.718 61.28 381.342 60.16 379.678 59.328C378.014 58.432 376.062 57.984 373.822 57.984C371.71 57.984 369.822 58.432 368.158 59.328C366.494 60.224 365.054 61.376 363.838 62.784C362.686 64.192 361.79 65.792 361.15 67.584C360.574 69.376 360.286 71.168 360.286 72.96C360.286 74.752 360.574 76.544 361.15 78.336C361.79 80.064 362.686 81.632 363.838 83.04C365.054 84.448 366.494 85.6 368.158 86.496C369.822 87.328 371.71 87.744 373.822 87.744C376.062 87.744 378.014 87.296 379.678 86.4C381.342 85.504 382.718 84.352 383.806 82.944C384.894 81.536 385.694 79.936 386.206 78.144C386.782 76.352 387.07 74.56 387.07 72.768ZM437.548 68.352C437.548 66.88 437.324 65.472 436.876 64.128C436.492 62.784 435.852 61.6 434.956 60.576C434.06 59.552 432.908 58.752 431.5 58.176C430.156 57.536 428.556 57.216 426.7 57.216C423.244 57.216 420.3 58.272 417.868 60.384C415.5 62.432 414.188 65.088 413.932 68.352H437.548ZM449.068 73.536C449.068 74.048 449.068 74.56 449.068 75.072C449.068 75.584 449.036 76.096 448.972 76.608H413.932C414.06 78.272 414.476 79.808 415.18 81.216C415.948 82.56 416.94 83.744 418.156 84.768C419.372 85.728 420.748 86.496 422.284 87.072C423.82 87.648 425.42 87.936 427.084 87.936C429.964 87.936 432.396 87.424 434.38 86.4C436.364 85.312 437.996 83.84 439.276 81.984L446.956 88.128C442.412 94.272 435.82 97.344 427.18 97.344C423.596 97.344 420.3 96.8 417.292 95.712C414.284 94.56 411.66 92.96 409.42 90.912C407.244 88.864 405.516 86.368 404.236 83.424C403.02 80.416 402.412 77.024 402.412 73.248C402.412 69.536 403.02 66.176 404.236 63.168C405.516 60.096 407.244 57.504 409.42 55.392C411.596 53.216 414.156 51.552 417.1 50.4C420.108 49.184 423.34 48.576 426.796 48.576C429.996 48.576 432.94 49.12 435.628 50.208C438.38 51.232 440.748 52.8 442.732 54.912C444.716 56.96 446.252 59.552 447.34 62.688C448.492 65.76 449.068 69.376 449.068 73.536ZM502.273 96H491.329V89.088H491.137C489.537 91.776 487.297 93.824 484.417 95.232C481.601 96.64 478.561 97.344 475.297 97.344C471.777 97.344 468.609 96.704 465.793 95.424C463.041 94.08 460.673 92.32 458.689 90.144C456.769 87.904 455.265 85.312 454.177 82.368C453.153 79.36 452.641 76.16 452.641 72.768C452.641 69.376 453.185 66.208 454.273 63.264C455.361 60.32 456.897 57.76 458.881 55.584C460.865 53.408 463.233 51.712 465.985 50.496C468.737 49.216 471.745 48.576 475.009 48.576C477.121 48.576 479.009 48.832 480.673 49.344C482.337 49.792 483.777 50.368 484.993 51.072C486.273 51.776 487.361 52.544 488.257 53.376C489.153 54.208 489.889 55.008 490.465 55.776H490.753V23.424H502.273V96ZM464.353 72.768C464.353 74.56 464.609 76.352 465.121 78.144C465.697 79.936 466.529 81.536 467.617 82.944C468.705 84.352 470.081 85.504 471.745 86.4C473.409 87.296 475.361 87.744 477.601 87.744C479.713 87.744 481.601 87.328 483.265 86.496C484.929 85.6 486.337 84.448 487.489 83.04C488.705 81.632 489.601 80.064 490.177 78.336C490.817 76.544 491.137 74.752 491.137 72.96C491.137 71.168 490.817 69.376 490.177 67.584C489.601 65.792 488.705 64.192 487.489 62.784C486.337 61.376 484.929 60.224 483.265 59.328C481.601 58.432 479.713 57.984 477.601 57.984C475.361 57.984 473.409 58.432 471.745 59.328C470.081 60.16 468.705 61.28 467.617 62.688C466.529 64.096 465.697 65.696 465.121 67.488C464.609 69.216 464.353 70.976 464.353 72.768ZM531.436 77.28H508.396V67.488H531.436V77.28ZM537.61 49.92H549.13V96H537.61V49.92ZM535.978 34.272C535.978 32.416 536.65 30.816 537.994 29.472C539.402 28.064 541.162 27.36 543.274 27.36C545.386 27.36 547.146 28.032 548.554 29.376C550.026 30.656 550.762 32.288 550.762 34.272C550.762 36.256 550.026 37.92 548.554 39.264C547.146 40.544 545.386 41.184 543.274 41.184C541.162 41.184 539.402 40.512 537.994 39.168C536.65 37.76 535.978 36.128 535.978 34.272ZM558.306 49.92H569.25V57.312H569.442C570.466 55.008 572.226 52.992 574.722 51.264C577.282 49.472 580.29 48.576 583.746 48.576C586.754 48.576 589.314 49.12 591.426 50.208C593.602 51.232 595.362 52.608 596.706 54.336C598.114 56.064 599.138 58.048 599.778 60.288C600.418 62.528 600.738 64.832 600.738 67.2V96H589.218V70.464C589.218 69.12 589.122 67.712 588.93 66.24C588.738 64.768 588.322 63.456 587.682 62.304C587.042 61.088 586.146 60.096 584.994 59.328C583.906 58.56 582.434 58.176 580.578 58.176C578.722 58.176 577.122 58.56 575.778 59.328C574.434 60.032 573.314 60.96 572.418 62.112C571.586 63.264 570.946 64.608 570.498 66.144C570.05 67.616 569.826 69.12 569.826 70.656V96H558.306V49.92Z" fill="white"/>
</svg>
