<svg width="128" height="128" viewBox="0 0 128 128" fill="none" xmlns="http://www.w3.org/2000/svg">
<path d="M63.9997 0C28.6507 0 0 28.6509 0 64C0 99.3491 28.6507 128 63.9997 128C67.8719 128 71.6606 127.655 75.3424 127.001C99.8606 122.611 119.531 104.267 125.853 80.4812C127.256 75.2172 128 69.6975 128 63.9996C128 28.6505 99.3487 0 63.9997 0ZM82.9266 96.7256H45.0743L54.2699 68.1447C48.3041 64.7543 44.2833 58.3425 44.2833 50.9902C44.2833 40.0995 53.1101 31.2729 64.0005 31.2729C74.8908 31.2729 83.7176 40.0998 83.7176 50.9902C83.7176 58.3419 79.6909 64.7539 73.731 68.1447L82.9266 96.7256Z" fill="#BF4320"/>
</svg>
